<?xml version="1.0" standalone="no"?>
<!DOCTYPE svg PUBLIC "-//W3C//DTD SVG 20010904//EN"
 "http://www.w3.org/TR/2001/REC-SVG-20010904/DTD/svg10.dtd">
<svg version="1.0" xmlns="http://www.w3.org/2000/svg"
 width="300.000000pt" height="300.000000pt" viewBox="0 0 300.000000 300.000000"
 preserveAspectRatio="xMidYMid meet">
<metadata>
Created by potrace 1.10, written by Peter Selinger 2001-2011
</metadata>
<g transform="translate(0.000000,300.000000) scale(0.050000,-0.050000)"
fill="#CC5F00" stroke="none">
<path d="M963 5969 c-444 -96 -838 -494 -933 -942 -43 -204 -43 -3850 0 -4054
96 -453 490 -847 943 -943 204 -43 3850 -43 4054 0 453 96 847 490 943 943 43
204 43 3850 0 4054 -96 453 -490 847 -943 943 -197 42 -3870 41 -4064 -1z
m4143 -950 c364 -102 362 -640 -4 -739 -161 -43 -4178 -17 -4268 28 -297 148
-258 624 58 707 109 29 4111 32 4214 4z m-2631 -1332 c129 -97 183 -277 119
-399 -66 -125 -838 -862 -919 -876 -174 -31 -592 285 -717 541 -166 343 255
604 541 336 122 -114 96 -125 361 143 325 328 448 379 615 255z m2652 -194
c75 -44 108 -80 145 -160 l48 -103 0 -980 0 -980 -48 -103 c-37 -80 -70 -116
-145 -160 l-97 -57 -870 0 c-843 0 -872 1 -950 42 -235 122 -277 453 -79 626
107 94 170 102 814 102 l595 0 0 529 0 529 -638 6 -639 6 -86 60 c-271 189
-210 596 103 687 43 12 390 19 910 17 l840 -4 97 -57z m-2652 -1366 c129 -97
183 -277 119 -399 -66 -125 -838 -862 -919 -876 -172 -31 -593 286 -716 540
-167 344 253 605 540 337 122 -114 96 -125 361 143 325 328 448 379 615 255z"/>
</g>
</svg>
